<?xml version="1.0" encoding="UTF-8"?>
<svg id="_图层_1" data-name="图层 1" xmlns="http://www.w3.org/2000/svg" viewBox="0 0 477.39 456.42">
  <defs>
    <style>
      .cls-1 {
        fill: #7abeb7;
      }
    </style>
  </defs>
  <path class="cls-1" d="M238.7,0C106.86,0,0,106.87,0,238.7c0,90.69,50.58,169.58,125.08,209.97,9.81,5.32,20.1,7.75,30.14,7.75,33.42,0,63.95-26.95,63.95-64.1,0-20.55-9.87-39.84-26.55-51.85-30.35-21.88-64.51-52.17-64.46-97.6,2.12-20.23,10.2-40.6,37.78-48.93,24.92-7.52,53.71-2,72.74,20.97,19.03-22.97,47.82-28.49,72.74-20.97,27.58,8.33,35.66,28.7,37.78,48.93,.06,45.43-34.1,75.72-64.46,97.6-8.33,6-14.97,13.84-19.53,22.73-4.55,8.89-7.02,18.86-7.02,29.13,0,48.3,51.63,79.37,94.09,56.35,74.5-40.39,125.08-119.28,125.08-209.97C477.39,106.87,370.53,0,238.7,0Z"/>
</svg>
